<svg width="48" height="45" viewBox="0 0 48 45" fill="none" xmlns="http://www.w3.org/2000/svg">
<path fill-rule="evenodd" clip-rule="evenodd" d="M37.3594 8.26562C37.3594 6.18948 36.5346 4.19836 35.0666 2.7303C33.5985 1.26225 31.6074 0.4375 29.5312 0.4375H19.0938C17.0176 0.4375 15.0265 1.26225 13.5584 2.7303C12.0904 4.19836 11.2656 6.18948 11.2656 8.26562H8.65625C6.5801 8.26562 4.58899 9.09037 3.12093 10.5584C1.65287 12.0265 0.828125 14.0176 0.828125 16.0938V36.9688C0.828125 39.0449 1.65287 41.036 3.12093 42.5041C4.58899 43.9721 6.5801 44.7969 8.65625 44.7969H39.9688C42.0449 44.7969 44.036 43.9721 45.5041 42.5041C46.9721 41.036 47.7969 39.0449 47.7969 36.9688V16.0938C47.7969 14.0176 46.9721 12.0265 45.5041 10.5584C44.036 9.09037 42.0449 8.26562 39.9688 8.26562H37.3594ZM29.5312 5.65625H19.0938C18.4017 5.65625 17.738 5.93117 17.2486 6.42052C16.7593 6.90987 16.4844 7.57358 16.4844 8.26562H32.1406C32.1406 7.57358 31.8657 6.90987 31.3764 6.42052C30.887 5.93117 30.2233 5.65625 29.5312 5.65625ZM8.65625 13.4844H39.9688C40.6608 13.4844 41.3245 13.7593 41.8139 14.2486C42.3032 14.738 42.5781 15.4017 42.5781 16.0938V36.9688C42.5781 37.6608 42.3032 38.3245 41.8139 38.8139C41.3245 39.3032 40.6608 39.5781 39.9688 39.5781H8.65625C7.9642 39.5781 7.3005 39.3032 6.81114 38.8139C6.32179 38.3245 6.04688 37.6608 6.04688 36.9688V16.0938C6.04688 15.4017 6.32179 14.738 6.81114 14.2486C7.3005 13.7593 7.9642 13.4844 8.65625 13.4844Z" fill="#F8F8F8"/>
</svg>
