<svg width="43" height="43" viewBox="0 0 43 43" fill="none" xmlns="http://www.w3.org/2000/svg">
<path fill-rule="evenodd" clip-rule="evenodd" d="M28.2706 0.900251C28.4071 0.763471 28.5692 0.654951 28.7476 0.580907C28.926 0.506863 29.1173 0.46875 29.3105 0.46875C29.5037 0.46875 29.695 0.506863 29.8734 0.580907C30.0519 0.654951 30.214 0.763471 30.3504 0.900251L42.1004 12.6502C42.2372 12.7867 42.3457 12.9488 42.4197 13.1272C42.4938 13.3056 42.5319 13.4969 42.5319 13.6901C42.5319 13.8833 42.4938 14.0746 42.4197 14.253C42.3457 14.4315 42.2372 14.5936 42.1004 14.73L36.5133 20.3171L34.0781 30.0491C33.8929 30.7901 33.5183 31.4703 32.9909 32.0228C32.4636 32.5754 31.8017 32.9814 31.0701 33.201L0.681641 42.319L9.79964 11.9276C10.0194 11.197 10.4252 10.5359 10.9772 10.0091C11.5292 9.48234 12.2085 9.10794 12.9486 8.92256L22.6806 6.49031L28.2706 0.900251ZM22.9831 9.4425L13.6625 11.7719C13.415 11.8337 13.188 11.9588 13.0036 12.1349C12.8192 12.3111 12.6838 12.5322 12.6108 12.7766L5.06145 37.9362L30.227 30.3869C30.4699 30.3133 30.6896 30.178 30.8646 29.9942C31.0397 29.8104 31.1641 29.5844 31.2258 29.3382L33.5581 20.0146L22.9831 9.43956V9.4425Z" fill="#F8F8F8"/>
</svg>
